<mxfile host="app.diagrams.net" modified="2022-01-18T16:40:23.552Z" agent="5.0 (Windows NT 10.0; Win64; x64) AppleWebKit/537.36 (KHTML, like Gecko) Chrome/97.0.4692.71 Safari/537.36" etag="D1UD7m6KRCEtwHapHlLl" version="16.2.7" type="github">
  <diagram id="onysPagwED_wZTJouNJT" name="Page-1">
    <mxGraphModel dx="1902" dy="677" grid="0" gridSize="10" guides="1" tooltips="1" connect="1" arrows="1" fold="1" page="0" pageScale="1" pageWidth="850" pageHeight="1100" math="0" shadow="0">
      <root>
        <mxCell id="0" />
        <mxCell id="1" parent="0" />
        <mxCell id="BJpWfWgqbpkn3w_byGHn-1" value="" style="shape=note;whiteSpace=wrap;html=1;backgroundOutline=1;darkOpacity=0.05;fillColor=#eeeeee;strokeColor=#36393d;fillStyle=solid;direction=west;gradientDirection=north;shadow=1;size=20;pointerEvents=1;hachureGap=4;" vertex="1" parent="1">
          <mxGeometry x="-134" y="2" width="772" height="562" as="geometry" />
        </mxCell>
        <mxCell id="BJpWfWgqbpkn3w_byGHn-2" value="" style="rounded=0;whiteSpace=wrap;html=1;hachureGap=4;" vertex="1" parent="1">
          <mxGeometry x="66" y="62" width="160" height="131" as="geometry" />
        </mxCell>
        <mxCell id="BJpWfWgqbpkn3w_byGHn-7" value="Customer" style="rounded=0;whiteSpace=wrap;html=1;hachureGap=4;" vertex="1" parent="1">
          <mxGeometry x="66" y="62" width="160" height="41" as="geometry" />
        </mxCell>
        <mxCell id="BJpWfWgqbpkn3w_byGHn-8" value="Dayalo" style="text;strokeColor=none;fillColor=none;html=1;align=center;verticalAlign=middle;whiteSpace=wrap;rounded=0;hachureGap=4;" vertex="1" parent="1">
          <mxGeometry x="107" y="143" width="60" height="30" as="geometry" />
        </mxCell>
        <mxCell id="BJpWfWgqbpkn3w_byGHn-9" value="Abhilasha" style="text;strokeColor=none;fillColor=none;html=1;align=center;verticalAlign=middle;whiteSpace=wrap;rounded=0;hachureGap=4;" vertex="1" parent="1">
          <mxGeometry x="111" y="112.5" width="60" height="30" as="geometry" />
        </mxCell>
        <mxCell id="BJpWfWgqbpkn3w_byGHn-10" value="" style="rounded=0;whiteSpace=wrap;html=1;hachureGap=4;" vertex="1" parent="1">
          <mxGeometry x="335" y="62" width="160" height="130" as="geometry" />
        </mxCell>
        <mxCell id="BJpWfWgqbpkn3w_byGHn-11" value="" style="rounded=0;whiteSpace=wrap;html=1;hachureGap=4;" vertex="1" parent="1">
          <mxGeometry x="335" y="62" width="160" height="42" as="geometry" />
        </mxCell>
        <mxCell id="BJpWfWgqbpkn3w_byGHn-12" value="Order" style="text;strokeColor=none;fillColor=none;html=1;align=center;verticalAlign=middle;whiteSpace=wrap;rounded=0;hachureGap=4;" vertex="1" parent="1">
          <mxGeometry x="373" y="67.5" width="60" height="30" as="geometry" />
        </mxCell>
        <mxCell id="BJpWfWgqbpkn3w_byGHn-13" value="order-2" style="text;strokeColor=none;fillColor=none;html=1;align=center;verticalAlign=middle;whiteSpace=wrap;rounded=0;hachureGap=4;" vertex="1" parent="1">
          <mxGeometry x="373" y="128" width="60" height="30" as="geometry" />
        </mxCell>
        <mxCell id="BJpWfWgqbpkn3w_byGHn-14" value="order-1" style="text;strokeColor=none;fillColor=none;html=1;align=center;verticalAlign=middle;whiteSpace=wrap;rounded=0;hachureGap=4;" vertex="1" parent="1">
          <mxGeometry x="373" y="109" width="60" height="30" as="geometry" />
        </mxCell>
        <mxCell id="BJpWfWgqbpkn3w_byGHn-15" value="order-3" style="text;strokeColor=none;fillColor=none;html=1;align=center;verticalAlign=middle;whiteSpace=wrap;rounded=0;hachureGap=4;" vertex="1" parent="1">
          <mxGeometry x="373" y="151" width="60" height="30" as="geometry" />
        </mxCell>
        <mxCell id="BJpWfWgqbpkn3w_byGHn-16" value="" style="rounded=0;whiteSpace=wrap;html=1;hachureGap=4;" vertex="1" parent="1">
          <mxGeometry x="431" y="267" width="94" height="154" as="geometry" />
        </mxCell>
        <mxCell id="BJpWfWgqbpkn3w_byGHn-17" value="" style="rounded=0;whiteSpace=wrap;html=1;hachureGap=4;" vertex="1" parent="1">
          <mxGeometry x="431" y="267" width="94" height="42" as="geometry" />
        </mxCell>
        <mxCell id="BJpWfWgqbpkn3w_byGHn-18" value="Special Offer" style="text;strokeColor=none;fillColor=none;html=1;align=center;verticalAlign=middle;whiteSpace=wrap;rounded=0;hachureGap=4;" vertex="1" parent="1">
          <mxGeometry x="445" y="273" width="60" height="30" as="geometry" />
        </mxCell>
        <mxCell id="BJpWfWgqbpkn3w_byGHn-19" value="" style="rounded=0;whiteSpace=wrap;html=1;hachureGap=4;" vertex="1" parent="1">
          <mxGeometry x="295" y="269" width="90" height="152" as="geometry" />
        </mxCell>
        <mxCell id="BJpWfWgqbpkn3w_byGHn-20" value="" style="rounded=0;whiteSpace=wrap;html=1;hachureGap=4;" vertex="1" parent="1">
          <mxGeometry x="296" y="269" width="89" height="41" as="geometry" />
        </mxCell>
        <mxCell id="BJpWfWgqbpkn3w_byGHn-21" value="Normal Offer" style="text;strokeColor=none;fillColor=none;html=1;align=center;verticalAlign=middle;whiteSpace=wrap;rounded=0;hachureGap=4;" vertex="1" parent="1">
          <mxGeometry x="305" y="274.5" width="60" height="30" as="geometry" />
        </mxCell>
        <mxCell id="BJpWfWgqbpkn3w_byGHn-22" value="NF-1&lt;br&gt;&lt;br&gt;NF-2&lt;br&gt;&lt;br&gt;NF3&lt;br&gt;&lt;br&gt;NF-4" style="text;strokeColor=none;fillColor=none;html=1;align=center;verticalAlign=middle;whiteSpace=wrap;rounded=0;hachureGap=4;" vertex="1" parent="1">
          <mxGeometry x="305" y="349" width="60" height="30" as="geometry" />
        </mxCell>
        <mxCell id="BJpWfWgqbpkn3w_byGHn-23" value="SF-1&lt;br&gt;&lt;br&gt;SF-2&lt;br&gt;&lt;br&gt;SF-3&lt;br&gt;&lt;br&gt;SF-4" style="text;strokeColor=none;fillColor=none;html=1;align=center;verticalAlign=middle;whiteSpace=wrap;rounded=0;hachureGap=4;" vertex="1" parent="1">
          <mxGeometry x="445" y="351" width="60" height="30" as="geometry" />
        </mxCell>
        <mxCell id="BJpWfWgqbpkn3w_byGHn-25" value="" style="edgeStyle=none;orthogonalLoop=1;jettySize=auto;html=1;rounded=0;endArrow=open;startSize=14;endSize=14;sourcePerimeterSpacing=8;targetPerimeterSpacing=8;curved=1;" edge="1" parent="1">
          <mxGeometry width="120" relative="1" as="geometry">
            <mxPoint x="249" y="128" as="sourcePoint" />
            <mxPoint x="305" y="128" as="targetPoint" />
            <Array as="points">
              <mxPoint x="278" y="128" />
            </Array>
          </mxGeometry>
        </mxCell>
      </root>
    </mxGraphModel>
  </diagram>
</mxfile>
